<?xml version="1.0" encoding="utf-8" standalone="no"?>
<!DOCTYPE svg PUBLIC "-//W3C//DTD SVG 1.1//EN"
  "http://www.w3.org/Graphics/SVG/1.1/DTD/svg11.dtd">
<svg xmlns:xlink="http://www.w3.org/1999/xlink" width="864pt" height="288pt" viewBox="0 0 864 288" xmlns="http://www.w3.org/2000/svg" version="1.1">
 <metadata>
  <rdf:RDF xmlns:dc="http://purl.org/dc/elements/1.1/" xmlns:cc="http://creativecommons.org/ns#" xmlns:rdf="http://www.w3.org/1999/02/22-rdf-syntax-ns#">
   <cc:Work>
    <dc:type rdf:resource="http://purl.org/dc/dcmitype/StillImage"/>
    <dc:date>2022-07-22T21:09:32.674140</dc:date>
    <dc:format>image/svg+xml</dc:format>
    <dc:creator>
     <cc:Agent>
      <dc:title>Matplotlib v3.5.2, https://matplotlib.org/</dc:title>
     </cc:Agent>
    </dc:creator>
   </cc:Work>
  </rdf:RDF>
 </metadata>
 <defs>
  <style type="text/css">*{stroke-linejoin: round; stroke-linecap: butt}</style>
 </defs>
 <g id="figure_1">
  <g id="patch_1">
   <path d="M 0 288 
L 864 288 
L 864 0 
L 0 0 
z
" style="fill: #ffffff"/>
  </g>
  <g id="axes_1">
   <g id="patch_2">
    <path d="M 108 256.32 
L 777.6 256.32 
L 777.6 34.56 
L 108 34.56 
z
" style="fill: #ffffff"/>
   </g>
   <g id="matplotlib.axis_1">
    <g id="xtick_1">
     <g id="line2d_1">
      <defs>
       <path id="m98fceb82f6" d="M 0 0 
L 0 3.5 
" style="stroke: #000000; stroke-width: 0.8"/>
      </defs>
      <g>
       <use xlink:href="#m98fceb82f6" x="108" y="256.32" style="stroke: #000000; stroke-width: 0.8"/>
      </g>
     </g>
     <g id="text_1">
      <!-- 0 -->
      <g transform="translate(104.81875 270.918437)scale(0.1 -0.1)">
       <defs>
        <path id="DejaVuSans-30" d="M 2034 4250 
Q 1547 4250 1301 3770 
Q 1056 3291 1056 2328 
Q 1056 1369 1301 889 
Q 1547 409 2034 409 
Q 2525 409 2770 889 
Q 3016 1369 3016 2328 
Q 3016 3291 2770 3770 
Q 2525 4250 2034 4250 
z
M 2034 4750 
Q 2819 4750 3233 4129 
Q 3647 3509 3647 2328 
Q 3647 1150 3233 529 
Q 2819 -91 2034 -91 
Q 1250 -91 836 529 
Q 422 1150 422 2328 
Q 422 3509 836 4129 
Q 1250 4750 2034 4750 
z
" transform="scale(0.015625)"/>
       </defs>
       <use xlink:href="#DejaVuSans-30"/>
      </g>
     </g>
    </g>
    <g id="xtick_2">
     <g id="line2d_2">
      <g>
       <use xlink:href="#m98fceb82f6" x="182.4" y="256.32" style="stroke: #000000; stroke-width: 0.8"/>
      </g>
     </g>
     <g id="text_2">
      <!-- 20 -->
      <g transform="translate(176.0375 270.918437)scale(0.1 -0.1)">
       <defs>
        <path id="DejaVuSans-32" d="M 1228 531 
L 3431 531 
L 3431 0 
L 469 0 
L 469 531 
Q 828 903 1448 1529 
Q 2069 2156 2228 2338 
Q 2531 2678 2651 2914 
Q 2772 3150 2772 3378 
Q 2772 3750 2511 3984 
Q 2250 4219 1831 4219 
Q 1534 4219 1204 4116 
Q 875 4013 500 3803 
L 500 4441 
Q 881 4594 1212 4672 
Q 1544 4750 1819 4750 
Q 2544 4750 2975 4387 
Q 3406 4025 3406 3419 
Q 3406 3131 3298 2873 
Q 3191 2616 2906 2266 
Q 2828 2175 2409 1742 
Q 1991 1309 1228 531 
z
" transform="scale(0.015625)"/>
       </defs>
       <use xlink:href="#DejaVuSans-32"/>
       <use xlink:href="#DejaVuSans-30" x="63.623047"/>
      </g>
     </g>
    </g>
    <g id="xtick_3">
     <g id="line2d_3">
      <g>
       <use xlink:href="#m98fceb82f6" x="256.8" y="256.32" style="stroke: #000000; stroke-width: 0.8"/>
      </g>
     </g>
     <g id="text_3">
      <!-- 40 -->
      <g transform="translate(250.4375 270.918437)scale(0.1 -0.1)">
       <defs>
        <path id="DejaVuSans-34" d="M 2419 4116 
L 825 1625 
L 2419 1625 
L 2419 4116 
z
M 2253 4666 
L 3047 4666 
L 3047 1625 
L 3713 1625 
L 3713 1100 
L 3047 1100 
L 3047 0 
L 2419 0 
L 2419 1100 
L 313 1100 
L 313 1709 
L 2253 4666 
z
" transform="scale(0.015625)"/>
       </defs>
       <use xlink:href="#DejaVuSans-34"/>
       <use xlink:href="#DejaVuSans-30" x="63.623047"/>
      </g>
     </g>
    </g>
    <g id="xtick_4">
     <g id="line2d_4">
      <g>
       <use xlink:href="#m98fceb82f6" x="331.2" y="256.32" style="stroke: #000000; stroke-width: 0.8"/>
      </g>
     </g>
     <g id="text_4">
      <!-- 60 -->
      <g transform="translate(324.8375 270.918437)scale(0.1 -0.1)">
       <defs>
        <path id="DejaVuSans-36" d="M 2113 2584 
Q 1688 2584 1439 2293 
Q 1191 2003 1191 1497 
Q 1191 994 1439 701 
Q 1688 409 2113 409 
Q 2538 409 2786 701 
Q 3034 994 3034 1497 
Q 3034 2003 2786 2293 
Q 2538 2584 2113 2584 
z
M 3366 4563 
L 3366 3988 
Q 3128 4100 2886 4159 
Q 2644 4219 2406 4219 
Q 1781 4219 1451 3797 
Q 1122 3375 1075 2522 
Q 1259 2794 1537 2939 
Q 1816 3084 2150 3084 
Q 2853 3084 3261 2657 
Q 3669 2231 3669 1497 
Q 3669 778 3244 343 
Q 2819 -91 2113 -91 
Q 1303 -91 875 529 
Q 447 1150 447 2328 
Q 447 3434 972 4092 
Q 1497 4750 2381 4750 
Q 2619 4750 2861 4703 
Q 3103 4656 3366 4563 
z
" transform="scale(0.015625)"/>
       </defs>
       <use xlink:href="#DejaVuSans-36"/>
       <use xlink:href="#DejaVuSans-30" x="63.623047"/>
      </g>
     </g>
    </g>
    <g id="xtick_5">
     <g id="line2d_5">
      <g>
       <use xlink:href="#m98fceb82f6" x="405.6" y="256.32" style="stroke: #000000; stroke-width: 0.8"/>
      </g>
     </g>
     <g id="text_5">
      <!-- 80 -->
      <g transform="translate(399.2375 270.918437)scale(0.1 -0.1)">
       <defs>
        <path id="DejaVuSans-38" d="M 2034 2216 
Q 1584 2216 1326 1975 
Q 1069 1734 1069 1313 
Q 1069 891 1326 650 
Q 1584 409 2034 409 
Q 2484 409 2743 651 
Q 3003 894 3003 1313 
Q 3003 1734 2745 1975 
Q 2488 2216 2034 2216 
z
M 1403 2484 
Q 997 2584 770 2862 
Q 544 3141 544 3541 
Q 544 4100 942 4425 
Q 1341 4750 2034 4750 
Q 2731 4750 3128 4425 
Q 3525 4100 3525 3541 
Q 3525 3141 3298 2862 
Q 3072 2584 2669 2484 
Q 3125 2378 3379 2068 
Q 3634 1759 3634 1313 
Q 3634 634 3220 271 
Q 2806 -91 2034 -91 
Q 1263 -91 848 271 
Q 434 634 434 1313 
Q 434 1759 690 2068 
Q 947 2378 1403 2484 
z
M 1172 3481 
Q 1172 3119 1398 2916 
Q 1625 2713 2034 2713 
Q 2441 2713 2670 2916 
Q 2900 3119 2900 3481 
Q 2900 3844 2670 4047 
Q 2441 4250 2034 4250 
Q 1625 4250 1398 4047 
Q 1172 3844 1172 3481 
z
" transform="scale(0.015625)"/>
       </defs>
       <use xlink:href="#DejaVuSans-38"/>
       <use xlink:href="#DejaVuSans-30" x="63.623047"/>
      </g>
     </g>
    </g>
    <g id="xtick_6">
     <g id="line2d_6">
      <g>
       <use xlink:href="#m98fceb82f6" x="480" y="256.32" style="stroke: #000000; stroke-width: 0.8"/>
      </g>
     </g>
     <g id="text_6">
      <!-- 100 -->
      <g transform="translate(470.45625 270.918437)scale(0.1 -0.1)">
       <defs>
        <path id="DejaVuSans-31" d="M 794 531 
L 1825 531 
L 1825 4091 
L 703 3866 
L 703 4441 
L 1819 4666 
L 2450 4666 
L 2450 531 
L 3481 531 
L 3481 0 
L 794 0 
L 794 531 
z
" transform="scale(0.015625)"/>
       </defs>
       <use xlink:href="#DejaVuSans-31"/>
       <use xlink:href="#DejaVuSans-30" x="63.623047"/>
       <use xlink:href="#DejaVuSans-30" x="127.246094"/>
      </g>
     </g>
    </g>
    <g id="xtick_7">
     <g id="line2d_7">
      <g>
       <use xlink:href="#m98fceb82f6" x="554.4" y="256.32" style="stroke: #000000; stroke-width: 0.8"/>
      </g>
     </g>
     <g id="text_7">
      <!-- 120 -->
      <g transform="translate(544.85625 270.918437)scale(0.1 -0.1)">
       <use xlink:href="#DejaVuSans-31"/>
       <use xlink:href="#DejaVuSans-32" x="63.623047"/>
       <use xlink:href="#DejaVuSans-30" x="127.246094"/>
      </g>
     </g>
    </g>
    <g id="xtick_8">
     <g id="line2d_8">
      <g>
       <use xlink:href="#m98fceb82f6" x="628.8" y="256.32" style="stroke: #000000; stroke-width: 0.8"/>
      </g>
     </g>
     <g id="text_8">
      <!-- 140 -->
      <g transform="translate(619.25625 270.918437)scale(0.1 -0.1)">
       <use xlink:href="#DejaVuSans-31"/>
       <use xlink:href="#DejaVuSans-34" x="63.623047"/>
       <use xlink:href="#DejaVuSans-30" x="127.246094"/>
      </g>
     </g>
    </g>
    <g id="xtick_9">
     <g id="line2d_9">
      <g>
       <use xlink:href="#m98fceb82f6" x="703.2" y="256.32" style="stroke: #000000; stroke-width: 0.8"/>
      </g>
     </g>
     <g id="text_9">
      <!-- 160 -->
      <g transform="translate(693.65625 270.918437)scale(0.1 -0.1)">
       <use xlink:href="#DejaVuSans-31"/>
       <use xlink:href="#DejaVuSans-36" x="63.623047"/>
       <use xlink:href="#DejaVuSans-30" x="127.246094"/>
      </g>
     </g>
    </g>
    <g id="xtick_10">
     <g id="line2d_10">
      <g>
       <use xlink:href="#m98fceb82f6" x="777.6" y="256.32" style="stroke: #000000; stroke-width: 0.8"/>
      </g>
     </g>
     <g id="text_10">
      <!-- 180 -->
      <g transform="translate(768.05625 270.918437)scale(0.1 -0.1)">
       <use xlink:href="#DejaVuSans-31"/>
       <use xlink:href="#DejaVuSans-38" x="63.623047"/>
       <use xlink:href="#DejaVuSans-30" x="127.246094"/>
      </g>
     </g>
    </g>
    <g id="text_11">
     <!-- Length -->
     <g transform="translate(425.553125 284.596563)scale(0.1 -0.1)">
      <defs>
       <path id="DejaVuSans-4c" d="M 628 4666 
L 1259 4666 
L 1259 531 
L 3531 531 
L 3531 0 
L 628 0 
L 628 4666 
z
" transform="scale(0.015625)"/>
       <path id="DejaVuSans-65" d="M 3597 1894 
L 3597 1613 
L 953 1613 
Q 991 1019 1311 708 
Q 1631 397 2203 397 
Q 2534 397 2845 478 
Q 3156 559 3463 722 
L 3463 178 
Q 3153 47 2828 -22 
Q 2503 -91 2169 -91 
Q 1331 -91 842 396 
Q 353 884 353 1716 
Q 353 2575 817 3079 
Q 1281 3584 2069 3584 
Q 2775 3584 3186 3129 
Q 3597 2675 3597 1894 
z
M 3022 2063 
Q 3016 2534 2758 2815 
Q 2500 3097 2075 3097 
Q 1594 3097 1305 2825 
Q 1016 2553 972 2059 
L 3022 2063 
z
" transform="scale(0.015625)"/>
       <path id="DejaVuSans-6e" d="M 3513 2113 
L 3513 0 
L 2938 0 
L 2938 2094 
Q 2938 2591 2744 2837 
Q 2550 3084 2163 3084 
Q 1697 3084 1428 2787 
Q 1159 2491 1159 1978 
L 1159 0 
L 581 0 
L 581 3500 
L 1159 3500 
L 1159 2956 
Q 1366 3272 1645 3428 
Q 1925 3584 2291 3584 
Q 2894 3584 3203 3211 
Q 3513 2838 3513 2113 
z
" transform="scale(0.015625)"/>
       <path id="DejaVuSans-67" d="M 2906 1791 
Q 2906 2416 2648 2759 
Q 2391 3103 1925 3103 
Q 1463 3103 1205 2759 
Q 947 2416 947 1791 
Q 947 1169 1205 825 
Q 1463 481 1925 481 
Q 2391 481 2648 825 
Q 2906 1169 2906 1791 
z
M 3481 434 
Q 3481 -459 3084 -895 
Q 2688 -1331 1869 -1331 
Q 1566 -1331 1297 -1286 
Q 1028 -1241 775 -1147 
L 775 -588 
Q 1028 -725 1275 -790 
Q 1522 -856 1778 -856 
Q 2344 -856 2625 -561 
Q 2906 -266 2906 331 
L 2906 616 
Q 2728 306 2450 153 
Q 2172 0 1784 0 
Q 1141 0 747 490 
Q 353 981 353 1791 
Q 353 2603 747 3093 
Q 1141 3584 1784 3584 
Q 2172 3584 2450 3431 
Q 2728 3278 2906 2969 
L 2906 3500 
L 3481 3500 
L 3481 434 
z
" transform="scale(0.015625)"/>
       <path id="DejaVuSans-74" d="M 1172 4494 
L 1172 3500 
L 2356 3500 
L 2356 3053 
L 1172 3053 
L 1172 1153 
Q 1172 725 1289 603 
Q 1406 481 1766 481 
L 2356 481 
L 2356 0 
L 1766 0 
Q 1100 0 847 248 
Q 594 497 594 1153 
L 594 3053 
L 172 3053 
L 172 3500 
L 594 3500 
L 594 4494 
L 1172 4494 
z
" transform="scale(0.015625)"/>
       <path id="DejaVuSans-68" d="M 3513 2113 
L 3513 0 
L 2938 0 
L 2938 2094 
Q 2938 2591 2744 2837 
Q 2550 3084 2163 3084 
Q 1697 3084 1428 2787 
Q 1159 2491 1159 1978 
L 1159 0 
L 581 0 
L 581 4863 
L 1159 4863 
L 1159 2956 
Q 1366 3272 1645 3428 
Q 1925 3584 2291 3584 
Q 2894 3584 3203 3211 
Q 3513 2838 3513 2113 
z
" transform="scale(0.015625)"/>
      </defs>
      <use xlink:href="#DejaVuSans-4c"/>
      <use xlink:href="#DejaVuSans-65" x="53.962891"/>
      <use xlink:href="#DejaVuSans-6e" x="115.486328"/>
      <use xlink:href="#DejaVuSans-67" x="178.865234"/>
      <use xlink:href="#DejaVuSans-74" x="242.341797"/>
      <use xlink:href="#DejaVuSans-68" x="281.550781"/>
     </g>
    </g>
   </g>
   <g id="matplotlib.axis_2">
    <g id="ytick_1">
     <g id="line2d_11">
      <defs>
       <path id="mea0eb02278" d="M 0 0 
L -3.5 0 
" style="stroke: #000000; stroke-width: 0.8"/>
      </defs>
      <g>
       <use xlink:href="#mea0eb02278" x="108" y="246.952367" style="stroke: #000000; stroke-width: 0.8"/>
      </g>
     </g>
     <g id="text_12">
      <!-- 0 -->
      <g transform="translate(94.6375 250.751586)scale(0.1 -0.1)">
       <use xlink:href="#DejaVuSans-30"/>
      </g>
     </g>
    </g>
    <g id="ytick_2">
     <g id="line2d_12">
      <g>
       <use xlink:href="#mea0eb02278" x="108" y="211.333993" style="stroke: #000000; stroke-width: 0.8"/>
      </g>
     </g>
     <g id="text_13">
      <!-- 50 -->
      <g transform="translate(88.275 215.133212)scale(0.1 -0.1)">
       <defs>
        <path id="DejaVuSans-35" d="M 691 4666 
L 3169 4666 
L 3169 4134 
L 1269 4134 
L 1269 2991 
Q 1406 3038 1543 3061 
Q 1681 3084 1819 3084 
Q 2600 3084 3056 2656 
Q 3513 2228 3513 1497 
Q 3513 744 3044 326 
Q 2575 -91 1722 -91 
Q 1428 -91 1123 -41 
Q 819 9 494 109 
L 494 744 
Q 775 591 1075 516 
Q 1375 441 1709 441 
Q 2250 441 2565 725 
Q 2881 1009 2881 1497 
Q 2881 1984 2565 2268 
Q 2250 2553 1709 2553 
Q 1456 2553 1204 2497 
Q 953 2441 691 2322 
L 691 4666 
z
" transform="scale(0.015625)"/>
       </defs>
       <use xlink:href="#DejaVuSans-35"/>
       <use xlink:href="#DejaVuSans-30" x="63.623047"/>
      </g>
     </g>
    </g>
    <g id="ytick_3">
     <g id="line2d_13">
      <g>
       <use xlink:href="#mea0eb02278" x="108" y="175.715618" style="stroke: #000000; stroke-width: 0.8"/>
      </g>
     </g>
     <g id="text_14">
      <!-- 100 -->
      <g transform="translate(81.9125 179.514837)scale(0.1 -0.1)">
       <use xlink:href="#DejaVuSans-31"/>
       <use xlink:href="#DejaVuSans-30" x="63.623047"/>
       <use xlink:href="#DejaVuSans-30" x="127.246094"/>
      </g>
     </g>
    </g>
    <g id="ytick_4">
     <g id="line2d_14">
      <g>
       <use xlink:href="#mea0eb02278" x="108" y="140.097244" style="stroke: #000000; stroke-width: 0.8"/>
      </g>
     </g>
     <g id="text_15">
      <!-- 150 -->
      <g transform="translate(81.9125 143.896463)scale(0.1 -0.1)">
       <use xlink:href="#DejaVuSans-31"/>
       <use xlink:href="#DejaVuSans-35" x="63.623047"/>
       <use xlink:href="#DejaVuSans-30" x="127.246094"/>
      </g>
     </g>
    </g>
    <g id="ytick_5">
     <g id="line2d_15">
      <g>
       <use xlink:href="#mea0eb02278" x="108" y="104.478869" style="stroke: #000000; stroke-width: 0.8"/>
      </g>
     </g>
     <g id="text_16">
      <!-- 200 -->
      <g transform="translate(81.9125 108.278088)scale(0.1 -0.1)">
       <use xlink:href="#DejaVuSans-32"/>
       <use xlink:href="#DejaVuSans-30" x="63.623047"/>
       <use xlink:href="#DejaVuSans-30" x="127.246094"/>
      </g>
     </g>
    </g>
    <g id="ytick_6">
     <g id="line2d_16">
      <g>
       <use xlink:href="#mea0eb02278" x="108" y="68.860495" style="stroke: #000000; stroke-width: 0.8"/>
      </g>
     </g>
     <g id="text_17">
      <!-- 250 -->
      <g transform="translate(81.9125 72.659713)scale(0.1 -0.1)">
       <use xlink:href="#DejaVuSans-32"/>
       <use xlink:href="#DejaVuSans-35" x="63.623047"/>
       <use xlink:href="#DejaVuSans-30" x="127.246094"/>
      </g>
     </g>
    </g>
    <g id="text_18">
     <!-- Video Count -->
     <g transform="translate(75.832812 175.884531)rotate(-90)scale(0.1 -0.1)">
      <defs>
       <path id="DejaVuSans-56" d="M 1831 0 
L 50 4666 
L 709 4666 
L 2188 738 
L 3669 4666 
L 4325 4666 
L 2547 0 
L 1831 0 
z
" transform="scale(0.015625)"/>
       <path id="DejaVuSans-69" d="M 603 3500 
L 1178 3500 
L 1178 0 
L 603 0 
L 603 3500 
z
M 603 4863 
L 1178 4863 
L 1178 4134 
L 603 4134 
L 603 4863 
z
" transform="scale(0.015625)"/>
       <path id="DejaVuSans-64" d="M 2906 2969 
L 2906 4863 
L 3481 4863 
L 3481 0 
L 2906 0 
L 2906 525 
Q 2725 213 2448 61 
Q 2172 -91 1784 -91 
Q 1150 -91 751 415 
Q 353 922 353 1747 
Q 353 2572 751 3078 
Q 1150 3584 1784 3584 
Q 2172 3584 2448 3432 
Q 2725 3281 2906 2969 
z
M 947 1747 
Q 947 1113 1208 752 
Q 1469 391 1925 391 
Q 2381 391 2643 752 
Q 2906 1113 2906 1747 
Q 2906 2381 2643 2742 
Q 2381 3103 1925 3103 
Q 1469 3103 1208 2742 
Q 947 2381 947 1747 
z
" transform="scale(0.015625)"/>
       <path id="DejaVuSans-6f" d="M 1959 3097 
Q 1497 3097 1228 2736 
Q 959 2375 959 1747 
Q 959 1119 1226 758 
Q 1494 397 1959 397 
Q 2419 397 2687 759 
Q 2956 1122 2956 1747 
Q 2956 2369 2687 2733 
Q 2419 3097 1959 3097 
z
M 1959 3584 
Q 2709 3584 3137 3096 
Q 3566 2609 3566 1747 
Q 3566 888 3137 398 
Q 2709 -91 1959 -91 
Q 1206 -91 779 398 
Q 353 888 353 1747 
Q 353 2609 779 3096 
Q 1206 3584 1959 3584 
z
" transform="scale(0.015625)"/>
       <path id="DejaVuSans-20" transform="scale(0.015625)"/>
       <path id="DejaVuSans-43" d="M 4122 4306 
L 4122 3641 
Q 3803 3938 3442 4084 
Q 3081 4231 2675 4231 
Q 1875 4231 1450 3742 
Q 1025 3253 1025 2328 
Q 1025 1406 1450 917 
Q 1875 428 2675 428 
Q 3081 428 3442 575 
Q 3803 722 4122 1019 
L 4122 359 
Q 3791 134 3420 21 
Q 3050 -91 2638 -91 
Q 1578 -91 968 557 
Q 359 1206 359 2328 
Q 359 3453 968 4101 
Q 1578 4750 2638 4750 
Q 3056 4750 3426 4639 
Q 3797 4528 4122 4306 
z
" transform="scale(0.015625)"/>
       <path id="DejaVuSans-75" d="M 544 1381 
L 544 3500 
L 1119 3500 
L 1119 1403 
Q 1119 906 1312 657 
Q 1506 409 1894 409 
Q 2359 409 2629 706 
Q 2900 1003 2900 1516 
L 2900 3500 
L 3475 3500 
L 3475 0 
L 2900 0 
L 2900 538 
Q 2691 219 2414 64 
Q 2138 -91 1772 -91 
Q 1169 -91 856 284 
Q 544 659 544 1381 
z
M 1991 3584 
L 1991 3584 
z
" transform="scale(0.015625)"/>
      </defs>
      <use xlink:href="#DejaVuSans-56"/>
      <use xlink:href="#DejaVuSans-69" x="66.158203"/>
      <use xlink:href="#DejaVuSans-64" x="93.941406"/>
      <use xlink:href="#DejaVuSans-65" x="157.417969"/>
      <use xlink:href="#DejaVuSans-6f" x="218.941406"/>
      <use xlink:href="#DejaVuSans-20" x="280.123047"/>
      <use xlink:href="#DejaVuSans-43" x="311.910156"/>
      <use xlink:href="#DejaVuSans-6f" x="381.734375"/>
      <use xlink:href="#DejaVuSans-75" x="442.916016"/>
      <use xlink:href="#DejaVuSans-6e" x="506.294922"/>
      <use xlink:href="#DejaVuSans-74" x="569.673828"/>
     </g>
    </g>
   </g>
   <g id="line2d_17">
    <path d="M 108 135.110671 
L 111.72 90.943887 
L 115.44 70.28523 
L 119.16 111.602544 
L 122.88 128.699364 
L 126.6 139.384876 
L 130.32 135.110671 
L 134.04 146.508551 
L 137.76 96.642827 
L 141.48 125.137527 
L 145.2 44.64 
L 148.92 103.054134 
L 152.64 147.220919 
L 156.36 165.742473 
L 160.08 180.702191 
L 163.8 186.401131 
L 167.52 200.648481 
L 171.24 210.621625 
L 174.96 222.019505 
L 178.68 229.855548 
L 182.4 218.457668 
L 186.12 234.84212 
L 189.84 234.129753 
L 193.56 234.84212 
L 197.28 232.705018 
L 201 236.979223 
L 204.72 239.828693 
L 208.44 240.54106 
L 212.16 237.69159 
L 215.88 243.39053 
L 219.6 241.965795 
L 223.32 239.828693 
L 227.04 243.39053 
L 230.76 241.965795 
L 234.48 242.678163 
L 245.64 242.678163 
L 249.36 244.815265 
L 253.08 242.678163 
L 256.8 245.527633 
L 260.52 246.24 
L 264.24 244.102898 
L 267.96 244.102898 
L 271.68 246.24 
L 275.4 244.815265 
L 279.12 244.815265 
L 282.84 245.527633 
L 286.56 243.39053 
L 290.28 246.24 
L 294 245.527633 
L 297.72 244.102898 
L 301.44 244.815265 
L 305.16 246.24 
L 308.88 246.24 
L 312.6 242.678163 
L 320.04 245.527633 
L 323.76 245.527633 
L 331.2 244.815265 
L 334.92 246.24 
L 342.36 246.24 
L 346.08 244.102898 
L 349.8 246.24 
L 353.52 246.24 
L 360.96 245.527633 
L 364.68 243.39053 
L 368.4 245.527633 
L 372.12 246.24 
L 379.56 245.527633 
L 394.44 246.24 
L 398.16 246.24 
L 401.88 245.527633 
L 409.32 245.527633 
L 413.04 246.24 
L 424.2 244.102898 
L 427.92 245.527633 
L 435.36 245.527633 
L 442.8 246.24 
L 446.52 245.527633 
L 476.28 245.527633 
L 483.72 244.815265 
L 494.88 246.24 
L 498.6 246.24 
L 502.32 245.527633 
L 506.04 246.24 
L 509.76 245.527633 
L 513.48 246.24 
L 517.2 244.102898 
L 520.92 245.527633 
L 528.36 246.24 
L 550.68 246.24 
L 576.72 245.527633 
L 591.6 245.527633 
L 602.76 246.24 
L 617.64 245.527633 
L 621.36 245.527633 
L 632.52 246.24 
L 666 246.24 
L 669.72 245.527633 
L 677.16 246.24 
L 692.04 246.24 
L 695.76 245.527633 
L 706.92 246.24 
L 710.64 246.24 
L 725.52 245.527633 
L 747.84 246.24 
L 773.88 246.24 
L 777.6 245.527633 
L 807.36 246.24 
L 865 246.24 
L 865 246.24 
" clip-path="url(#p4d76f707d6)" style="fill: none; stroke: #1f77b4; stroke-width: 1.5; stroke-linecap: square"/>
    <defs>
     <path id="m73364869f4" d="M -3 3 
L 3 -3 
M -3 -3 
L 3 3 
" style="stroke: #1f77b4"/>
    </defs>
    <g clip-path="url(#p4d76f707d6)">
     <use xlink:href="#m73364869f4" x="108" y="135.110671" style="fill: #1f77b4; stroke: #1f77b4"/>
     <use xlink:href="#m73364869f4" x="111.72" y="90.943887" style="fill: #1f77b4; stroke: #1f77b4"/>
     <use xlink:href="#m73364869f4" x="115.44" y="70.28523" style="fill: #1f77b4; stroke: #1f77b4"/>
     <use xlink:href="#m73364869f4" x="119.16" y="111.602544" style="fill: #1f77b4; stroke: #1f77b4"/>
     <use xlink:href="#m73364869f4" x="122.88" y="128.699364" style="fill: #1f77b4; stroke: #1f77b4"/>
     <use xlink:href="#m73364869f4" x="126.6" y="139.384876" style="fill: #1f77b4; stroke: #1f77b4"/>
     <use xlink:href="#m73364869f4" x="130.32" y="135.110671" style="fill: #1f77b4; stroke: #1f77b4"/>
     <use xlink:href="#m73364869f4" x="134.04" y="146.508551" style="fill: #1f77b4; stroke: #1f77b4"/>
     <use xlink:href="#m73364869f4" x="137.76" y="96.642827" style="fill: #1f77b4; stroke: #1f77b4"/>
     <use xlink:href="#m73364869f4" x="141.48" y="125.137527" style="fill: #1f77b4; stroke: #1f77b4"/>
     <use xlink:href="#m73364869f4" x="145.2" y="44.64" style="fill: #1f77b4; stroke: #1f77b4"/>
     <use xlink:href="#m73364869f4" x="148.92" y="103.054134" style="fill: #1f77b4; stroke: #1f77b4"/>
     <use xlink:href="#m73364869f4" x="152.64" y="147.220919" style="fill: #1f77b4; stroke: #1f77b4"/>
     <use xlink:href="#m73364869f4" x="156.36" y="165.742473" style="fill: #1f77b4; stroke: #1f77b4"/>
     <use xlink:href="#m73364869f4" x="160.08" y="180.702191" style="fill: #1f77b4; stroke: #1f77b4"/>
     <use xlink:href="#m73364869f4" x="163.8" y="186.401131" style="fill: #1f77b4; stroke: #1f77b4"/>
     <use xlink:href="#m73364869f4" x="167.52" y="200.648481" style="fill: #1f77b4; stroke: #1f77b4"/>
     <use xlink:href="#m73364869f4" x="171.24" y="210.621625" style="fill: #1f77b4; stroke: #1f77b4"/>
     <use xlink:href="#m73364869f4" x="174.96" y="222.019505" style="fill: #1f77b4; stroke: #1f77b4"/>
     <use xlink:href="#m73364869f4" x="178.68" y="229.855548" style="fill: #1f77b4; stroke: #1f77b4"/>
     <use xlink:href="#m73364869f4" x="182.4" y="218.457668" style="fill: #1f77b4; stroke: #1f77b4"/>
     <use xlink:href="#m73364869f4" x="186.12" y="234.84212" style="fill: #1f77b4; stroke: #1f77b4"/>
     <use xlink:href="#m73364869f4" x="189.84" y="234.129753" style="fill: #1f77b4; stroke: #1f77b4"/>
     <use xlink:href="#m73364869f4" x="193.56" y="234.84212" style="fill: #1f77b4; stroke: #1f77b4"/>
     <use xlink:href="#m73364869f4" x="197.28" y="232.705018" style="fill: #1f77b4; stroke: #1f77b4"/>
     <use xlink:href="#m73364869f4" x="201" y="236.979223" style="fill: #1f77b4; stroke: #1f77b4"/>
     <use xlink:href="#m73364869f4" x="204.72" y="239.828693" style="fill: #1f77b4; stroke: #1f77b4"/>
     <use xlink:href="#m73364869f4" x="208.44" y="240.54106" style="fill: #1f77b4; stroke: #1f77b4"/>
     <use xlink:href="#m73364869f4" x="212.16" y="237.69159" style="fill: #1f77b4; stroke: #1f77b4"/>
     <use xlink:href="#m73364869f4" x="215.88" y="243.39053" style="fill: #1f77b4; stroke: #1f77b4"/>
     <use xlink:href="#m73364869f4" x="219.6" y="241.965795" style="fill: #1f77b4; stroke: #1f77b4"/>
     <use xlink:href="#m73364869f4" x="223.32" y="239.828693" style="fill: #1f77b4; stroke: #1f77b4"/>
     <use xlink:href="#m73364869f4" x="227.04" y="243.39053" style="fill: #1f77b4; stroke: #1f77b4"/>
     <use xlink:href="#m73364869f4" x="230.76" y="241.965795" style="fill: #1f77b4; stroke: #1f77b4"/>
     <use xlink:href="#m73364869f4" x="234.48" y="242.678163" style="fill: #1f77b4; stroke: #1f77b4"/>
     <use xlink:href="#m73364869f4" x="238.2" y="242.678163" style="fill: #1f77b4; stroke: #1f77b4"/>
     <use xlink:href="#m73364869f4" x="241.92" y="242.678163" style="fill: #1f77b4; stroke: #1f77b4"/>
     <use xlink:href="#m73364869f4" x="245.64" y="242.678163" style="fill: #1f77b4; stroke: #1f77b4"/>
     <use xlink:href="#m73364869f4" x="249.36" y="244.815265" style="fill: #1f77b4; stroke: #1f77b4"/>
     <use xlink:href="#m73364869f4" x="253.08" y="242.678163" style="fill: #1f77b4; stroke: #1f77b4"/>
     <use xlink:href="#m73364869f4" x="256.8" y="245.527633" style="fill: #1f77b4; stroke: #1f77b4"/>
     <use xlink:href="#m73364869f4" x="260.52" y="246.24" style="fill: #1f77b4; stroke: #1f77b4"/>
     <use xlink:href="#m73364869f4" x="264.24" y="244.102898" style="fill: #1f77b4; stroke: #1f77b4"/>
     <use xlink:href="#m73364869f4" x="267.96" y="244.102898" style="fill: #1f77b4; stroke: #1f77b4"/>
     <use xlink:href="#m73364869f4" x="271.68" y="246.24" style="fill: #1f77b4; stroke: #1f77b4"/>
     <use xlink:href="#m73364869f4" x="275.4" y="244.815265" style="fill: #1f77b4; stroke: #1f77b4"/>
     <use xlink:href="#m73364869f4" x="279.12" y="244.815265" style="fill: #1f77b4; stroke: #1f77b4"/>
     <use xlink:href="#m73364869f4" x="282.84" y="245.527633" style="fill: #1f77b4; stroke: #1f77b4"/>
     <use xlink:href="#m73364869f4" x="286.56" y="243.39053" style="fill: #1f77b4; stroke: #1f77b4"/>
     <use xlink:href="#m73364869f4" x="290.28" y="246.24" style="fill: #1f77b4; stroke: #1f77b4"/>
     <use xlink:href="#m73364869f4" x="294" y="245.527633" style="fill: #1f77b4; stroke: #1f77b4"/>
     <use xlink:href="#m73364869f4" x="297.72" y="244.102898" style="fill: #1f77b4; stroke: #1f77b4"/>
     <use xlink:href="#m73364869f4" x="301.44" y="244.815265" style="fill: #1f77b4; stroke: #1f77b4"/>
     <use xlink:href="#m73364869f4" x="305.16" y="246.24" style="fill: #1f77b4; stroke: #1f77b4"/>
     <use xlink:href="#m73364869f4" x="308.88" y="246.24" style="fill: #1f77b4; stroke: #1f77b4"/>
     <use xlink:href="#m73364869f4" x="312.6" y="242.678163" style="fill: #1f77b4; stroke: #1f77b4"/>
     <use xlink:href="#m73364869f4" x="320.04" y="245.527633" style="fill: #1f77b4; stroke: #1f77b4"/>
     <use xlink:href="#m73364869f4" x="323.76" y="245.527633" style="fill: #1f77b4; stroke: #1f77b4"/>
     <use xlink:href="#m73364869f4" x="331.2" y="244.815265" style="fill: #1f77b4; stroke: #1f77b4"/>
     <use xlink:href="#m73364869f4" x="334.92" y="246.24" style="fill: #1f77b4; stroke: #1f77b4"/>
     <use xlink:href="#m73364869f4" x="338.64" y="246.24" style="fill: #1f77b4; stroke: #1f77b4"/>
     <use xlink:href="#m73364869f4" x="342.36" y="246.24" style="fill: #1f77b4; stroke: #1f77b4"/>
     <use xlink:href="#m73364869f4" x="346.08" y="244.102898" style="fill: #1f77b4; stroke: #1f77b4"/>
     <use xlink:href="#m73364869f4" x="349.8" y="246.24" style="fill: #1f77b4; stroke: #1f77b4"/>
     <use xlink:href="#m73364869f4" x="353.52" y="246.24" style="fill: #1f77b4; stroke: #1f77b4"/>
     <use xlink:href="#m73364869f4" x="360.96" y="245.527633" style="fill: #1f77b4; stroke: #1f77b4"/>
     <use xlink:href="#m73364869f4" x="364.68" y="243.39053" style="fill: #1f77b4; stroke: #1f77b4"/>
     <use xlink:href="#m73364869f4" x="368.4" y="245.527633" style="fill: #1f77b4; stroke: #1f77b4"/>
     <use xlink:href="#m73364869f4" x="372.12" y="246.24" style="fill: #1f77b4; stroke: #1f77b4"/>
     <use xlink:href="#m73364869f4" x="379.56" y="245.527633" style="fill: #1f77b4; stroke: #1f77b4"/>
     <use xlink:href="#m73364869f4" x="394.44" y="246.24" style="fill: #1f77b4; stroke: #1f77b4"/>
     <use xlink:href="#m73364869f4" x="398.16" y="246.24" style="fill: #1f77b4; stroke: #1f77b4"/>
     <use xlink:href="#m73364869f4" x="401.88" y="245.527633" style="fill: #1f77b4; stroke: #1f77b4"/>
     <use xlink:href="#m73364869f4" x="405.6" y="245.527633" style="fill: #1f77b4; stroke: #1f77b4"/>
     <use xlink:href="#m73364869f4" x="409.32" y="245.527633" style="fill: #1f77b4; stroke: #1f77b4"/>
     <use xlink:href="#m73364869f4" x="413.04" y="246.24" style="fill: #1f77b4; stroke: #1f77b4"/>
     <use xlink:href="#m73364869f4" x="420.48" y="244.815265" style="fill: #1f77b4; stroke: #1f77b4"/>
     <use xlink:href="#m73364869f4" x="424.2" y="244.102898" style="fill: #1f77b4; stroke: #1f77b4"/>
     <use xlink:href="#m73364869f4" x="427.92" y="245.527633" style="fill: #1f77b4; stroke: #1f77b4"/>
     <use xlink:href="#m73364869f4" x="435.36" y="245.527633" style="fill: #1f77b4; stroke: #1f77b4"/>
     <use xlink:href="#m73364869f4" x="442.8" y="246.24" style="fill: #1f77b4; stroke: #1f77b4"/>
     <use xlink:href="#m73364869f4" x="446.52" y="245.527633" style="fill: #1f77b4; stroke: #1f77b4"/>
     <use xlink:href="#m73364869f4" x="450.24" y="245.527633" style="fill: #1f77b4; stroke: #1f77b4"/>
     <use xlink:href="#m73364869f4" x="453.96" y="245.527633" style="fill: #1f77b4; stroke: #1f77b4"/>
     <use xlink:href="#m73364869f4" x="461.4" y="245.527633" style="fill: #1f77b4; stroke: #1f77b4"/>
     <use xlink:href="#m73364869f4" x="476.28" y="245.527633" style="fill: #1f77b4; stroke: #1f77b4"/>
     <use xlink:href="#m73364869f4" x="483.72" y="244.815265" style="fill: #1f77b4; stroke: #1f77b4"/>
     <use xlink:href="#m73364869f4" x="494.88" y="246.24" style="fill: #1f77b4; stroke: #1f77b4"/>
     <use xlink:href="#m73364869f4" x="498.6" y="246.24" style="fill: #1f77b4; stroke: #1f77b4"/>
     <use xlink:href="#m73364869f4" x="502.32" y="245.527633" style="fill: #1f77b4; stroke: #1f77b4"/>
     <use xlink:href="#m73364869f4" x="506.04" y="246.24" style="fill: #1f77b4; stroke: #1f77b4"/>
     <use xlink:href="#m73364869f4" x="509.76" y="245.527633" style="fill: #1f77b4; stroke: #1f77b4"/>
     <use xlink:href="#m73364869f4" x="513.48" y="246.24" style="fill: #1f77b4; stroke: #1f77b4"/>
     <use xlink:href="#m73364869f4" x="517.2" y="244.102898" style="fill: #1f77b4; stroke: #1f77b4"/>
     <use xlink:href="#m73364869f4" x="520.92" y="245.527633" style="fill: #1f77b4; stroke: #1f77b4"/>
     <use xlink:href="#m73364869f4" x="528.36" y="246.24" style="fill: #1f77b4; stroke: #1f77b4"/>
     <use xlink:href="#m73364869f4" x="539.52" y="246.24" style="fill: #1f77b4; stroke: #1f77b4"/>
     <use xlink:href="#m73364869f4" x="550.68" y="246.24" style="fill: #1f77b4; stroke: #1f77b4"/>
     <use xlink:href="#m73364869f4" x="576.72" y="245.527633" style="fill: #1f77b4; stroke: #1f77b4"/>
     <use xlink:href="#m73364869f4" x="591.6" y="245.527633" style="fill: #1f77b4; stroke: #1f77b4"/>
     <use xlink:href="#m73364869f4" x="602.76" y="246.24" style="fill: #1f77b4; stroke: #1f77b4"/>
     <use xlink:href="#m73364869f4" x="617.64" y="245.527633" style="fill: #1f77b4; stroke: #1f77b4"/>
     <use xlink:href="#m73364869f4" x="621.36" y="245.527633" style="fill: #1f77b4; stroke: #1f77b4"/>
     <use xlink:href="#m73364869f4" x="632.52" y="246.24" style="fill: #1f77b4; stroke: #1f77b4"/>
     <use xlink:href="#m73364869f4" x="636.24" y="246.24" style="fill: #1f77b4; stroke: #1f77b4"/>
     <use xlink:href="#m73364869f4" x="639.96" y="246.24" style="fill: #1f77b4; stroke: #1f77b4"/>
     <use xlink:href="#m73364869f4" x="647.4" y="246.24" style="fill: #1f77b4; stroke: #1f77b4"/>
     <use xlink:href="#m73364869f4" x="666" y="246.24" style="fill: #1f77b4; stroke: #1f77b4"/>
     <use xlink:href="#m73364869f4" x="669.72" y="245.527633" style="fill: #1f77b4; stroke: #1f77b4"/>
     <use xlink:href="#m73364869f4" x="677.16" y="246.24" style="fill: #1f77b4; stroke: #1f77b4"/>
     <use xlink:href="#m73364869f4" x="692.04" y="246.24" style="fill: #1f77b4; stroke: #1f77b4"/>
     <use xlink:href="#m73364869f4" x="695.76" y="245.527633" style="fill: #1f77b4; stroke: #1f77b4"/>
     <use xlink:href="#m73364869f4" x="706.92" y="246.24" style="fill: #1f77b4; stroke: #1f77b4"/>
     <use xlink:href="#m73364869f4" x="710.64" y="246.24" style="fill: #1f77b4; stroke: #1f77b4"/>
     <use xlink:href="#m73364869f4" x="725.52" y="245.527633" style="fill: #1f77b4; stroke: #1f77b4"/>
     <use xlink:href="#m73364869f4" x="747.84" y="246.24" style="fill: #1f77b4; stroke: #1f77b4"/>
     <use xlink:href="#m73364869f4" x="751.56" y="246.24" style="fill: #1f77b4; stroke: #1f77b4"/>
     <use xlink:href="#m73364869f4" x="766.44" y="246.24" style="fill: #1f77b4; stroke: #1f77b4"/>
     <use xlink:href="#m73364869f4" x="773.88" y="246.24" style="fill: #1f77b4; stroke: #1f77b4"/>
     <use xlink:href="#m73364869f4" x="777.6" y="245.527633" style="fill: #1f77b4; stroke: #1f77b4"/>
     <use xlink:href="#m73364869f4" x="807.36" y="246.24" style="fill: #1f77b4; stroke: #1f77b4"/>
     <use xlink:href="#m73364869f4" x="837.12" y="246.24" style="fill: #1f77b4; stroke: #1f77b4"/>
     <use xlink:href="#m73364869f4" x="840.84" y="246.24" style="fill: #1f77b4; stroke: #1f77b4"/>
     <use xlink:href="#m73364869f4" x="844.56" y="246.24" style="fill: #1f77b4; stroke: #1f77b4"/>
     <use xlink:href="#m73364869f4" x="870.6" y="246.24" style="fill: #1f77b4; stroke: #1f77b4"/>
     <use xlink:href="#m73364869f4" x="874.32" y="246.24" style="fill: #1f77b4; stroke: #1f77b4"/>
     <use xlink:href="#m73364869f4" x="889.2" y="246.24" style="fill: #1f77b4; stroke: #1f77b4"/>
     <use xlink:href="#m73364869f4" x="892.92" y="246.24" style="fill: #1f77b4; stroke: #1f77b4"/>
     <use xlink:href="#m73364869f4" x="911.52" y="246.24" style="fill: #1f77b4; stroke: #1f77b4"/>
     <use xlink:href="#m73364869f4" x="915.24" y="246.24" style="fill: #1f77b4; stroke: #1f77b4"/>
     <use xlink:href="#m73364869f4" x="922.68" y="246.24" style="fill: #1f77b4; stroke: #1f77b4"/>
     <use xlink:href="#m73364869f4" x="945" y="245.527633" style="fill: #1f77b4; stroke: #1f77b4"/>
     <use xlink:href="#m73364869f4" x="978.48" y="246.24" style="fill: #1f77b4; stroke: #1f77b4"/>
     <use xlink:href="#m73364869f4" x="993.36" y="246.24" style="fill: #1f77b4; stroke: #1f77b4"/>
     <use xlink:href="#m73364869f4" x="997.08" y="245.527633" style="fill: #1f77b4; stroke: #1f77b4"/>
     <use xlink:href="#m73364869f4" x="1045.44" y="246.24" style="fill: #1f77b4; stroke: #1f77b4"/>
     <use xlink:href="#m73364869f4" x="1064.04" y="246.24" style="fill: #1f77b4; stroke: #1f77b4"/>
     <use xlink:href="#m73364869f4" x="1071.48" y="246.24" style="fill: #1f77b4; stroke: #1f77b4"/>
     <use xlink:href="#m73364869f4" x="1082.64" y="245.527633" style="fill: #1f77b4; stroke: #1f77b4"/>
     <use xlink:href="#m73364869f4" x="1131" y="246.24" style="fill: #1f77b4; stroke: #1f77b4"/>
     <use xlink:href="#m73364869f4" x="1138.44" y="246.24" style="fill: #1f77b4; stroke: #1f77b4"/>
     <use xlink:href="#m73364869f4" x="1179.36" y="246.24" style="fill: #1f77b4; stroke: #1f77b4"/>
     <use xlink:href="#m73364869f4" x="1212.84" y="246.24" style="fill: #1f77b4; stroke: #1f77b4"/>
     <use xlink:href="#m73364869f4" x="1224" y="246.24" style="fill: #1f77b4; stroke: #1f77b4"/>
     <use xlink:href="#m73364869f4" x="1268.64" y="246.24" style="fill: #1f77b4; stroke: #1f77b4"/>
     <use xlink:href="#m73364869f4" x="1272.36" y="246.24" style="fill: #1f77b4; stroke: #1f77b4"/>
     <use xlink:href="#m73364869f4" x="1294.68" y="246.24" style="fill: #1f77b4; stroke: #1f77b4"/>
     <use xlink:href="#m73364869f4" x="1387.68" y="246.24" style="fill: #1f77b4; stroke: #1f77b4"/>
     <use xlink:href="#m73364869f4" x="1410" y="246.24" style="fill: #1f77b4; stroke: #1f77b4"/>
     <use xlink:href="#m73364869f4" x="1428.6" y="246.24" style="fill: #1f77b4; stroke: #1f77b4"/>
     <use xlink:href="#m73364869f4" x="1484.4" y="246.24" style="fill: #1f77b4; stroke: #1f77b4"/>
     <use xlink:href="#m73364869f4" x="1491.84" y="245.527633" style="fill: #1f77b4; stroke: #1f77b4"/>
     <use xlink:href="#m73364869f4" x="1514.16" y="245.527633" style="fill: #1f77b4; stroke: #1f77b4"/>
     <use xlink:href="#m73364869f4" x="1551.36" y="246.24" style="fill: #1f77b4; stroke: #1f77b4"/>
     <use xlink:href="#m73364869f4" x="1592.28" y="246.24" style="fill: #1f77b4; stroke: #1f77b4"/>
     <use xlink:href="#m73364869f4" x="1607.16" y="246.24" style="fill: #1f77b4; stroke: #1f77b4"/>
     <use xlink:href="#m73364869f4" x="1614.6" y="246.24" style="fill: #1f77b4; stroke: #1f77b4"/>
     <use xlink:href="#m73364869f4" x="1640.64" y="245.527633" style="fill: #1f77b4; stroke: #1f77b4"/>
     <use xlink:href="#m73364869f4" x="1707.6" y="246.24" style="fill: #1f77b4; stroke: #1f77b4"/>
     <use xlink:href="#m73364869f4" x="1755.96" y="246.24" style="fill: #1f77b4; stroke: #1f77b4"/>
     <use xlink:href="#m73364869f4" x="1808.04" y="246.24" style="fill: #1f77b4; stroke: #1f77b4"/>
     <use xlink:href="#m73364869f4" x="1819.2" y="246.24" style="fill: #1f77b4; stroke: #1f77b4"/>
     <use xlink:href="#m73364869f4" x="1830.36" y="246.24" style="fill: #1f77b4; stroke: #1f77b4"/>
     <use xlink:href="#m73364869f4" x="1912.2" y="246.24" style="fill: #1f77b4; stroke: #1f77b4"/>
     <use xlink:href="#m73364869f4" x="1953.12" y="246.24" style="fill: #1f77b4; stroke: #1f77b4"/>
     <use xlink:href="#m73364869f4" x="1982.88" y="246.24" style="fill: #1f77b4; stroke: #1f77b4"/>
     <use xlink:href="#m73364869f4" x="2005.2" y="246.24" style="fill: #1f77b4; stroke: #1f77b4"/>
     <use xlink:href="#m73364869f4" x="2209.8" y="246.24" style="fill: #1f77b4; stroke: #1f77b4"/>
     <use xlink:href="#m73364869f4" x="2228.4" y="246.24" style="fill: #1f77b4; stroke: #1f77b4"/>
     <use xlink:href="#m73364869f4" x="2325.12" y="246.24" style="fill: #1f77b4; stroke: #1f77b4"/>
     <use xlink:href="#m73364869f4" x="2340" y="245.527633" style="fill: #1f77b4; stroke: #1f77b4"/>
     <use xlink:href="#m73364869f4" x="2366.04" y="245.527633" style="fill: #1f77b4; stroke: #1f77b4"/>
     <use xlink:href="#m73364869f4" x="2552.04" y="246.24" style="fill: #1f77b4; stroke: #1f77b4"/>
     <use xlink:href="#m73364869f4" x="2674.8" y="246.24" style="fill: #1f77b4; stroke: #1f77b4"/>
     <use xlink:href="#m73364869f4" x="2700.84" y="246.24" style="fill: #1f77b4; stroke: #1f77b4"/>
     <use xlink:href="#m73364869f4" x="2719.44" y="246.24" style="fill: #1f77b4; stroke: #1f77b4"/>
     <use xlink:href="#m73364869f4" x="2778.96" y="246.24" style="fill: #1f77b4; stroke: #1f77b4"/>
     <use xlink:href="#m73364869f4" x="2782.68" y="246.24" style="fill: #1f77b4; stroke: #1f77b4"/>
     <use xlink:href="#m73364869f4" x="2805" y="246.24" style="fill: #1f77b4; stroke: #1f77b4"/>
     <use xlink:href="#m73364869f4" x="3229.08" y="246.24" style="fill: #1f77b4; stroke: #1f77b4"/>
     <use xlink:href="#m73364869f4" x="4467.84" y="246.24" style="fill: #1f77b4; stroke: #1f77b4"/>
     <use xlink:href="#m73364869f4" x="8288.28" y="246.24" style="fill: #1f77b4; stroke: #1f77b4"/>
    </g>
   </g>
   <g id="patch_3">
    <path d="M 108 256.32 
L 108 34.56 
" style="fill: none; stroke: #000000; stroke-width: 0.8; stroke-linejoin: miter; stroke-linecap: square"/>
   </g>
   <g id="patch_4">
    <path d="M 777.6 256.32 
L 777.6 34.56 
" style="fill: none; stroke: #000000; stroke-width: 0.8; stroke-linejoin: miter; stroke-linecap: square"/>
   </g>
   <g id="patch_5">
    <path d="M 108 256.32 
L 777.6 256.32 
" style="fill: none; stroke: #000000; stroke-width: 0.8; stroke-linejoin: miter; stroke-linecap: square"/>
   </g>
   <g id="patch_6">
    <path d="M 108 34.56 
L 777.6 34.56 
" style="fill: none; stroke: #000000; stroke-width: 0.8; stroke-linejoin: miter; stroke-linecap: square"/>
   </g>
   <g id="text_19">
    <!-- YouTube Length Distribution -->
    <g transform="translate(358.883438 28.56)scale(0.12 -0.12)">
     <defs>
      <path id="DejaVuSans-59" d="M -13 4666 
L 666 4666 
L 1959 2747 
L 3244 4666 
L 3922 4666 
L 2272 2222 
L 2272 0 
L 1638 0 
L 1638 2222 
L -13 4666 
z
" transform="scale(0.015625)"/>
      <path id="DejaVuSans-54" d="M -19 4666 
L 3928 4666 
L 3928 4134 
L 2272 4134 
L 2272 0 
L 1638 0 
L 1638 4134 
L -19 4134 
L -19 4666 
z
" transform="scale(0.015625)"/>
      <path id="DejaVuSans-62" d="M 3116 1747 
Q 3116 2381 2855 2742 
Q 2594 3103 2138 3103 
Q 1681 3103 1420 2742 
Q 1159 2381 1159 1747 
Q 1159 1113 1420 752 
Q 1681 391 2138 391 
Q 2594 391 2855 752 
Q 3116 1113 3116 1747 
z
M 1159 2969 
Q 1341 3281 1617 3432 
Q 1894 3584 2278 3584 
Q 2916 3584 3314 3078 
Q 3713 2572 3713 1747 
Q 3713 922 3314 415 
Q 2916 -91 2278 -91 
Q 1894 -91 1617 61 
Q 1341 213 1159 525 
L 1159 0 
L 581 0 
L 581 4863 
L 1159 4863 
L 1159 2969 
z
" transform="scale(0.015625)"/>
      <path id="DejaVuSans-44" d="M 1259 4147 
L 1259 519 
L 2022 519 
Q 2988 519 3436 956 
Q 3884 1394 3884 2338 
Q 3884 3275 3436 3711 
Q 2988 4147 2022 4147 
L 1259 4147 
z
M 628 4666 
L 1925 4666 
Q 3281 4666 3915 4102 
Q 4550 3538 4550 2338 
Q 4550 1131 3912 565 
Q 3275 0 1925 0 
L 628 0 
L 628 4666 
z
" transform="scale(0.015625)"/>
      <path id="DejaVuSans-73" d="M 2834 3397 
L 2834 2853 
Q 2591 2978 2328 3040 
Q 2066 3103 1784 3103 
Q 1356 3103 1142 2972 
Q 928 2841 928 2578 
Q 928 2378 1081 2264 
Q 1234 2150 1697 2047 
L 1894 2003 
Q 2506 1872 2764 1633 
Q 3022 1394 3022 966 
Q 3022 478 2636 193 
Q 2250 -91 1575 -91 
Q 1294 -91 989 -36 
Q 684 19 347 128 
L 347 722 
Q 666 556 975 473 
Q 1284 391 1588 391 
Q 1994 391 2212 530 
Q 2431 669 2431 922 
Q 2431 1156 2273 1281 
Q 2116 1406 1581 1522 
L 1381 1569 
Q 847 1681 609 1914 
Q 372 2147 372 2553 
Q 372 3047 722 3315 
Q 1072 3584 1716 3584 
Q 2034 3584 2315 3537 
Q 2597 3491 2834 3397 
z
" transform="scale(0.015625)"/>
      <path id="DejaVuSans-72" d="M 2631 2963 
Q 2534 3019 2420 3045 
Q 2306 3072 2169 3072 
Q 1681 3072 1420 2755 
Q 1159 2438 1159 1844 
L 1159 0 
L 581 0 
L 581 3500 
L 1159 3500 
L 1159 2956 
Q 1341 3275 1631 3429 
Q 1922 3584 2338 3584 
Q 2397 3584 2469 3576 
Q 2541 3569 2628 3553 
L 2631 2963 
z
" transform="scale(0.015625)"/>
     </defs>
     <use xlink:href="#DejaVuSans-59"/>
     <use xlink:href="#DejaVuSans-6f" x="47.833984"/>
     <use xlink:href="#DejaVuSans-75" x="109.015625"/>
     <use xlink:href="#DejaVuSans-54" x="172.394531"/>
     <use xlink:href="#DejaVuSans-75" x="218.353516"/>
     <use xlink:href="#DejaVuSans-62" x="281.732422"/>
     <use xlink:href="#DejaVuSans-65" x="345.208984"/>
     <use xlink:href="#DejaVuSans-20" x="406.732422"/>
     <use xlink:href="#DejaVuSans-4c" x="438.519531"/>
     <use xlink:href="#DejaVuSans-65" x="492.482422"/>
     <use xlink:href="#DejaVuSans-6e" x="554.005859"/>
     <use xlink:href="#DejaVuSans-67" x="617.384766"/>
     <use xlink:href="#DejaVuSans-74" x="680.861328"/>
     <use xlink:href="#DejaVuSans-68" x="720.070312"/>
     <use xlink:href="#DejaVuSans-20" x="783.449219"/>
     <use xlink:href="#DejaVuSans-44" x="815.236328"/>
     <use xlink:href="#DejaVuSans-69" x="892.238281"/>
     <use xlink:href="#DejaVuSans-73" x="920.021484"/>
     <use xlink:href="#DejaVuSans-74" x="972.121094"/>
     <use xlink:href="#DejaVuSans-72" x="1011.330078"/>
     <use xlink:href="#DejaVuSans-69" x="1052.443359"/>
     <use xlink:href="#DejaVuSans-62" x="1080.226562"/>
     <use xlink:href="#DejaVuSans-75" x="1143.703125"/>
     <use xlink:href="#DejaVuSans-74" x="1207.082031"/>
     <use xlink:href="#DejaVuSans-69" x="1246.291016"/>
     <use xlink:href="#DejaVuSans-6f" x="1274.074219"/>
     <use xlink:href="#DejaVuSans-6e" x="1335.255859"/>
    </g>
   </g>
   <g id="legend_1">
    <g id="patch_7">
     <path d="M 766.6 47.56 
L 770.6 47.56 
Q 772.6 47.56 772.6 45.56 
L 772.6 41.56 
Q 772.6 39.56 770.6 39.56 
L 766.6 39.56 
Q 764.6 39.56 764.6 41.56 
L 764.6 45.56 
Q 764.6 47.56 766.6 47.56 
z
" style="fill: #ffffff; opacity: 0.8; stroke: #cccccc; stroke-linejoin: miter"/>
    </g>
   </g>
  </g>
 </g>
 <defs>
  <clipPath id="p4d76f707d6">
   <rect x="108" y="34.56" width="669.6" height="221.76"/>
  </clipPath>
 </defs>
</svg>
